<svg width="34" height="32" viewBox="0 0 34 32" fill="none" xmlns="http://www.w3.org/2000/svg">
    <path d="M29.8649 26.5034C27.9611 23.2122 25.0274 20.8522 21.6036 19.7334C23.2971 18.7252 24.6129 17.189 25.3489 15.3606C26.0848 13.5323 26.2002 11.5129 25.6774 9.6126C25.1546 7.71229 24.0225 6.03614 22.4548 4.84156C20.8872 3.64697 18.9708 3 16.9999 3C15.0289 3 13.1125 3.64697 11.5449 4.84156C9.97725 6.03614 8.84509 7.71229 8.32228 9.6126C7.79946 11.5129 7.91489 13.5323 8.65083 15.3606C9.38678 17.189 10.7026 18.7252 12.3961 19.7334C8.97235 20.8509 6.0386 23.2109 4.13485 26.5034C4.06504 26.6172 4.01873 26.7439 3.99866 26.8759C3.97859 27.0079 3.98517 27.1426 4.01801 27.2721C4.05084 27.4015 4.10927 27.5231 4.18984 27.6296C4.27041 27.7361 4.3715 27.8253 4.48713 27.8921C4.60277 27.9589 4.73061 28.0019 4.86311 28.0185C4.99561 28.035 5.1301 28.0249 5.25863 27.9887C5.38716 27.9525 5.50713 27.8909 5.61146 27.8075C5.71579 27.7242 5.80238 27.6208 5.8661 27.5034C8.2211 23.4334 12.3836 21.0034 16.9999 21.0034C21.6161 21.0034 25.7786 23.4334 28.1336 27.5034C28.1973 27.6208 28.2839 27.7242 28.3882 27.8075C28.4926 27.8909 28.6125 27.9525 28.7411 27.9887C28.8696 28.0249 29.0041 28.035 29.1366 28.0185C29.2691 28.0019 29.3969 27.9589 29.5126 27.8921C29.6282 27.8253 29.7293 27.7361 29.8099 27.6296C29.8904 27.5231 29.9489 27.4015 29.9817 27.2721C30.0145 27.1426 30.0211 27.0079 30.001 26.8759C29.981 26.7439 29.9347 26.6172 29.8649 26.5034ZM9.99985 12.0034C9.99985 10.6189 10.4104 9.26555 11.1796 8.11441C11.9487 6.96327 13.042 6.06606 14.3211 5.53624C15.6002 5.00643 17.0076 4.86781 18.3655 5.1379C19.7234 5.408 20.9706 6.07469 21.9496 7.05365C22.9286 8.03262 23.5953 9.2799 23.8653 10.6378C24.1354 11.9956 23.9968 13.4031 23.467 14.6822C22.9372 15.9613 22.04 17.0545 20.8888 17.8237C19.7377 18.5929 18.3843 19.0034 16.9999 19.0034C15.1439 19.0014 13.3646 18.2633 12.0523 16.951C10.74 15.6386 10.0018 13.8593 9.99985 12.0034Z" fill="#F6F6F6"/>
</svg>
