<svg width="26" height="26" viewBox="0 0 26 26" fill="none" xmlns="http://www.w3.org/2000/svg">
    <path d="M18.6875 7.3125H4.0625C3.63152 7.3125 3.2182 7.48371 2.91345 7.78845C2.6087 8.0932 2.4375 8.50652 2.4375 8.9375V20.3125C2.4375 20.7435 2.6087 21.1568 2.91345 21.4615C3.2182 21.7663 3.63152 21.9375 4.0625 21.9375H18.6875C19.1185 21.9375 19.5318 21.7663 19.8365 21.4615C20.1413 21.1568 20.3125 20.7435 20.3125 20.3125V8.9375C20.3125 8.50652 20.1413 8.0932 19.8365 7.78845C19.5318 7.48371 19.1185 7.3125 18.6875 7.3125ZM18.6875 20.3125H4.0625V8.9375H18.6875V20.3125ZM23.5625 5.6875V17.875C23.5625 18.0905 23.4769 18.2972 23.3245 18.4495C23.1722 18.6019 22.9655 18.6875 22.75 18.6875C22.5345 18.6875 22.3278 18.6019 22.1755 18.4495C22.0231 18.2972 21.9375 18.0905 21.9375 17.875V5.6875H6.5C6.28451 5.6875 6.07785 5.6019 5.92548 5.44952C5.7731 5.29715 5.6875 5.09049 5.6875 4.875C5.6875 4.65951 5.7731 4.45285 5.92548 4.30048C6.07785 4.1481 6.28451 4.0625 6.5 4.0625H21.9375C22.3685 4.0625 22.7818 4.2337 23.0865 4.53845C23.3913 4.8432 23.5625 5.25652 23.5625 5.6875Z" fill="#010F41"/>
</svg>
