<svg width="8" height="15" viewBox="0 0 8 15" fill="none" xmlns="http://www.w3.org/2000/svg">
    <path d="M1.13858 0.1998L7.8045 7.01764C7.86648 7.08096 7.91564 7.15615 7.94919 7.23892C7.98273 7.32168 8 7.4104 8 7.5C8 7.5896 7.98273 7.67832 7.94919 7.76108C7.91564 7.84385 7.86648 7.91904 7.8045 7.98236L1.13858 14.8002C1.0135 14.9281 0.843852 15 0.666963 15C0.490073 15 0.320428 14.9281 0.195349 14.8002C0.0702687 14.6723 -2.191e-08 14.4988 -2.98183e-08 14.3178C-3.77266e-08 14.1369 0.0702687 13.9634 0.195348 13.8355L6.39049 7.5L0.195348 1.16453C0.133415 1.10118 0.0842866 1.02598 0.0507686 0.943215C0.0172506 0.860452 -6.21937e-07 0.771746 -6.25853e-07 0.682163C-6.29768e-07 0.59258 0.0172506 0.503875 0.0507686 0.42111C0.0842866 0.338346 0.133415 0.263145 0.195348 0.1998C0.257281 0.136456 0.330807 0.0862093 0.411726 0.0519275C0.492646 0.0176449 0.579375 -2.53253e-08 0.666962 -2.91539e-08C0.754549 -3.29824e-08 0.841278 0.0176448 0.922198 0.0519275C1.00312 0.0862093 1.07664 0.136456 1.13858 0.1998Z" fill="#F6F6F6"/>
</svg>
