<svg width="34" height="33" viewBox="0 0 34 33" fill="none" xmlns="http://www.w3.org/2000/svg">
    <path d="M16.9981 10.0801C15.8114 10.0801 14.6514 10.432 13.6647 11.0913C12.678 11.7506 11.909 12.6877 11.4548 13.784C11.0007 14.8804 10.8819 16.0868 11.1134 17.2507C11.3449 18.4146 11.9163 19.4837 12.7555 20.3228C13.5946 21.1619 14.6637 21.7333 15.8276 21.9648C16.9914 22.1964 18.1978 22.0775 19.2942 21.6234C20.3906 21.1693 21.3276 20.4003 21.9869 19.4136C22.6462 18.4269 22.9981 17.2668 22.9981 16.0801C22.9965 14.4893 22.3638 12.9642 21.2389 11.8393C20.1141 10.7145 18.5889 10.0818 16.9981 10.0801ZM16.9981 20.0801C16.207 20.0801 15.4336 19.8455 14.7758 19.406C14.118 18.9665 13.6053 18.3418 13.3026 17.6109C12.9998 16.88 12.9206 16.0757 13.075 15.2998C13.2293 14.5239 13.6103 13.8111 14.1697 13.2517C14.7291 12.6923 15.4418 12.3113 16.2177 12.157C16.9937 12.0027 17.7979 12.0819 18.5288 12.3846C19.2597 12.6874 19.8845 13.2001 20.324 13.8579C20.7635 14.5157 20.9981 15.289 20.9981 16.0801C20.9981 17.141 20.5767 18.1584 19.8265 18.9086C19.0764 19.6587 18.059 20.0801 16.9981 20.0801ZM27.9981 16.3501C28.0031 16.1701 28.0031 15.9901 27.9981 15.8101L29.8631 13.4801C29.9609 13.3578 30.0286 13.2142 30.0607 13.0609C30.0928 12.9076 30.0885 12.7489 30.0481 12.5976C29.7424 11.4484 29.285 10.3449 28.6881 9.31639C28.6099 9.18178 28.5014 9.06728 28.3712 8.982C28.241 8.89671 28.0927 8.843 27.9381 8.82514L24.9731 8.49514C24.8498 8.36514 24.7248 8.24014 24.5981 8.12014L24.2481 5.14764C24.2301 4.9929 24.1762 4.84451 24.0907 4.7143C24.0052 4.58408 23.8904 4.47565 23.7556 4.39764C22.7266 3.80182 21.6233 3.34493 20.4744 3.03889C20.3229 2.99863 20.1642 2.99451 20.0109 3.02687C19.8576 3.05922 19.7141 3.12713 19.5919 3.22514L17.2681 5.08014C17.0881 5.08014 16.9081 5.08014 16.7281 5.08014L14.3981 3.21889C14.2758 3.1211 14.1322 3.05341 13.9789 3.02127C13.8256 2.98914 13.6669 2.99346 13.5156 3.03389C12.3665 3.34017 11.2632 3.79749 10.2344 4.39389C10.0998 4.47204 9.98525 4.58054 9.89997 4.71075C9.81468 4.84095 9.76097 4.98926 9.7431 5.14388L9.4131 8.11388C9.2831 8.23805 9.1581 8.36305 9.0381 8.48888L6.0656 8.83014C5.91087 8.84814 5.76248 8.90204 5.63227 8.98755C5.50205 9.07305 5.39362 9.1878 5.3156 9.32264C4.71979 10.3516 4.2629 11.4549 3.95685 12.6039C3.9166 12.7553 3.91248 12.914 3.94483 13.0673C3.97719 13.2206 4.0451 13.3642 4.1431 13.4864L5.9981 15.8101C5.9981 15.9901 5.9981 16.1701 5.9981 16.3501L4.13685 18.6801C4.03906 18.8025 3.97138 18.9461 3.93924 19.0993C3.90711 19.2526 3.91143 19.4113 3.95185 19.5626C4.25759 20.7119 4.71494 21.8153 5.31185 22.8439C5.39001 22.9785 5.49851 23.093 5.62871 23.1783C5.75892 23.2636 5.90723 23.3173 6.06185 23.3351L9.02685 23.6651C9.15102 23.7951 9.27602 23.9201 9.40185 24.0401L9.7481 27.0126C9.76611 27.1674 9.82001 27.3158 9.90552 27.446C9.99102 27.5762 10.1058 27.6846 10.2406 27.7626C11.2696 28.3585 12.3729 28.8153 13.5219 29.1214C13.6733 29.1616 13.832 29.1658 13.9853 29.1334C14.1386 29.1011 14.2821 29.0331 14.4044 28.9351L16.7281 27.0801C16.9081 27.0851 17.0881 27.0851 17.2681 27.0801L19.5981 28.9451C19.7204 29.0429 19.864 29.1106 20.0173 29.1427C20.1706 29.1749 20.3293 29.1706 20.4806 29.1301C21.6299 28.8244 22.7333 28.3671 23.7619 27.7701C23.8965 27.692 24.011 27.5835 24.0962 27.4533C24.1815 27.3231 24.2352 27.1748 24.2531 27.0201L24.5831 24.0551C24.7131 23.9318 24.8381 23.8068 24.9581 23.6801L27.9306 23.3301C28.0853 23.3121 28.2337 23.2582 28.3639 23.1727C28.4942 23.0872 28.6026 22.9725 28.6806 22.8376C29.2764 21.8087 29.7333 20.7053 30.0394 19.5564C30.0796 19.405 30.0837 19.2462 30.0514 19.0929C30.019 18.9397 29.9511 18.7961 29.8531 18.6739L27.9981 16.3501ZM25.9856 15.5376C26.0069 15.899 26.0069 16.2613 25.9856 16.6226C25.9707 16.87 26.0482 17.1141 26.2031 17.3076L27.9769 19.5239C27.7733 20.1707 27.5127 20.7982 27.1981 21.3989L24.3731 21.7189C24.1271 21.7462 23.8999 21.8638 23.7356 22.0489C23.495 22.3195 23.2387 22.5758 22.9681 22.8164C22.783 22.9807 22.6654 23.2079 22.6381 23.4539L22.3244 26.2764C21.7237 26.5911 21.0962 26.8518 20.4494 27.0551L18.2319 25.2814C18.0544 25.1396 17.834 25.0625 17.6069 25.0626H17.5469C17.1855 25.0839 16.8232 25.0839 16.4619 25.0626C16.2145 25.0477 15.9703 25.1253 15.7769 25.2801L13.5544 27.0551C12.9075 26.8516 12.2801 26.591 11.6794 26.2764L11.3594 23.4551C11.332 23.2091 11.2145 22.982 11.0294 22.8176C10.7587 22.577 10.5025 22.3207 10.2619 22.0501C10.0975 21.865 9.87037 21.7474 9.62435 21.7201L6.80185 21.4051C6.48709 20.8045 6.22648 20.177 6.0231 19.5301L7.79685 17.3126C7.95174 17.1191 8.02925 16.875 8.01435 16.6276C7.9931 16.2663 7.9931 15.904 8.01435 15.5426C8.02925 15.2952 7.95174 15.0511 7.79685 14.8576L6.0231 12.6364C6.22664 11.9896 6.48724 11.3621 6.80185 10.7614L9.6231 10.4414C9.86912 10.4141 10.0963 10.2965 10.2606 10.1114C10.5012 9.84077 10.7575 9.5845 11.0281 9.34389C11.2139 9.17944 11.332 8.95178 11.3594 8.70514L11.6731 5.88389C12.2737 5.56912 12.9012 5.30851 13.5481 5.10514L15.7656 6.87889C15.9591 7.03377 16.2032 7.11128 16.4506 7.09639C16.812 7.07514 17.1742 7.07514 17.5356 7.09639C17.783 7.11128 18.0271 7.03377 18.2206 6.87889L20.4419 5.10514C21.0887 5.30867 21.7162 5.56927 22.3169 5.88389L22.6369 8.70514C22.6642 8.95115 22.7817 9.1783 22.9669 9.34264C23.2375 9.58325 23.4937 9.83952 23.7344 10.1101C23.8987 10.2952 24.1258 10.4128 24.3719 10.4401L27.1944 10.7539C27.5091 11.3545 27.7697 11.982 27.9731 12.6289L26.1994 14.8464C26.043 15.0415 25.9654 15.2881 25.9819 15.5376H25.9856Z" fill="#F6F6F6"/>
</svg>
