<svg width="30" height="32" viewBox="0 0 30 32" fill="none" xmlns="http://www.w3.org/2000/svg">
    <path d="M12.9995 27C12.9995 27.2652 12.8942 27.5196 12.7066 27.7071C12.5191 27.8946 12.2647 28 11.9995 28H3.99951C3.7343 28 3.47994 27.8946 3.29241 27.7071C3.10487 27.5196 2.99951 27.2652 2.99951 27V5C2.99951 4.73478 3.10487 4.48043 3.29241 4.29289C3.47994 4.10536 3.7343 4 3.99951 4H11.9995C12.2647 4 12.5191 4.10536 12.7066 4.29289C12.8942 4.48043 12.9995 4.73478 12.9995 5C12.9995 5.26522 12.8942 5.51957 12.7066 5.70711C12.5191 5.89464 12.2647 6 11.9995 6H4.99951V26H11.9995C12.2647 26 12.5191 26.1054 12.7066 26.2929C12.8942 26.4804 12.9995 26.7348 12.9995 27ZM26.707 15.2925L21.707 10.2925C21.5194 10.1049 21.2649 9.99944 20.9995 9.99944C20.7341 9.99944 20.4797 10.1049 20.292 10.2925C20.1044 10.4801 19.999 10.7346 19.999 11C19.999 11.2654 20.1044 11.5199 20.292 11.7075L23.5858 15H11.9995C11.7343 15 11.4799 15.1054 11.2924 15.2929C11.1049 15.4804 10.9995 15.7348 10.9995 16C10.9995 16.2652 11.1049 16.5196 11.2924 16.7071C11.4799 16.8946 11.7343 17 11.9995 17H23.5858L20.292 20.2925C20.1044 20.4801 19.999 20.7346 19.999 21C19.999 21.2654 20.1044 21.5199 20.292 21.7075C20.4797 21.8951 20.7341 22.0006 20.9995 22.0006C21.2649 22.0006 21.5194 21.8951 21.707 21.7075L26.707 16.7075C26.8 16.6146 26.8737 16.5043 26.9241 16.3829C26.9744 16.2615 27.0003 16.1314 27.0003 16C27.0003 15.8686 26.9744 15.7385 26.9241 15.6171C26.8737 15.4957 26.8 15.3854 26.707 15.2925Z" fill="#F6F6F6"/>
</svg>
