<svg width="32" height="32" viewBox="0 0 32 32" fill="none" xmlns="http://www.w3.org/2000/svg">
    <path d="M12.5026 14.5538C12.6547 14.466 12.7809 14.3397 12.8687 14.1876C12.9565 14.0356 13.0027 13.8631 13.0026 13.6875V4.6875C13.0017 4.52807 12.9627 4.37116 12.8889 4.22986C12.815 4.08857 12.7085 3.96698 12.5781 3.87524C12.4477 3.7835 12.2972 3.72426 12.1393 3.70248C11.9813 3.68069 11.8205 3.69699 11.6701 3.75C8.75135 4.78302 6.29677 6.8233 4.74765 9.50409C3.19852 12.1849 2.65645 15.3303 3.21887 18.375C3.24803 18.5324 3.31456 18.6806 3.41288 18.807C3.5112 18.9333 3.63843 19.0343 3.78387 19.1012C3.91494 19.1625 4.05793 19.1941 4.20262 19.1938C4.37814 19.1938 4.55058 19.1477 4.70262 19.06L12.5026 14.5538ZM11.0026 6.2025V13.11L5.01762 16.5637C5.00262 16.375 5.00262 16.185 5.00262 16C5.0044 13.973 5.56549 11.9857 6.62412 10.2571C7.68274 8.5284 9.19785 7.12539 11.0026 6.2025ZM16.0026 3C15.7374 3 15.4831 3.10536 15.2955 3.29289C15.108 3.48043 15.0026 3.73478 15.0026 4V15.4775L5.15137 21.2162C5.03706 21.2825 4.93701 21.3708 4.85701 21.4759C4.77701 21.5811 4.71864 21.7011 4.68528 21.8289C4.65192 21.9568 4.64423 22.09 4.66266 22.2208C4.68108 22.3517 4.72526 22.4776 4.79262 22.5912C5.94726 24.5541 7.59726 26.1793 9.57745 27.304C11.5576 28.4286 13.7985 29.0134 16.0758 28.9998C18.353 28.9861 20.5867 28.3745 22.5533 27.2261C24.5198 26.0777 26.1502 24.4329 27.2812 22.4563C28.4122 20.4797 29.0041 18.2407 28.9977 15.9634C28.9913 13.6861 28.3868 11.4505 27.2447 9.48029C26.1026 7.51009 24.463 5.87448 22.49 4.73719C20.517 3.5999 18.2799 3.00085 16.0026 3ZM16.0026 27C14.2569 26.9953 12.5371 26.5774 10.984 25.7805C9.43076 24.9836 8.08829 23.8303 7.06637 22.415L16.5064 16.915C16.6582 16.8273 16.7844 16.7012 16.8721 16.5494C16.9599 16.3976 17.0062 16.2254 17.0064 16.05V5.045C19.8269 5.3009 22.44 6.6348 24.3018 8.769C26.1635 10.9032 27.1303 13.6732 27.001 16.5024C26.8716 19.3315 25.6561 22.0018 23.6074 23.9572C21.5587 25.9126 18.8347 27.0025 16.0026 27Z" fill="#F6F6F6"/>
</svg>
