<svg width="26" height="26" viewBox="0 0 26 26" fill="none" xmlns="http://www.w3.org/2000/svg">
    <path d="M3.25 4.875H22.75C22.9655 4.875 23.1722 4.9606 23.3245 5.11298C23.4769 5.26535 23.5625 5.47201 23.5625 5.6875V19.5C23.5625 19.931 23.3913 20.3443 23.0865 20.649C22.7818 20.9538 22.3685 21.125 21.9375 21.125H4.0625C3.63152 21.125 3.2182 20.9538 2.91345 20.649C2.60871 20.3443 2.4375 19.931 2.4375 19.5V5.6875C2.4375 5.47201 2.5231 5.26535 2.67548 5.11298C2.82785 4.9606 3.03451 4.875 3.25 4.875ZM21.9375 11.375H17.875V14.625H21.9375V11.375ZM16.25 11.375H4.0625V14.625H16.25V11.375ZM4.0625 6.5V9.75H21.9375V6.5H4.0625ZM21.9375 16.25H17.875V19.5H21.9375V16.25ZM4.0625 19.5H16.25V16.25H4.0625V19.5Z" fill="#010F41"/>
</svg>
