<svg width="26" height="26" viewBox="0 0 26 26" fill="none" xmlns="http://www.w3.org/2000/svg">
    <path d="M15.8438 21.125C15.8438 21.3405 15.7582 21.5472 15.6058 21.6995C15.4535 21.8519 15.2468 21.9375 15.0313 21.9375H12.1876C11.9721 21.9375 11.7654 21.8519 11.613 21.6995C11.4607 21.5472 11.3751 21.3405 11.3751 21.125V15.4375C11.3751 15.222 11.4607 15.0153 11.613 14.863C11.7654 14.7106 11.9721 14.625 12.1876 14.625C12.4031 14.625 12.6097 14.7106 12.7621 14.863C12.9145 15.0153 13.0001 15.222 13.0001 15.4375V20.3125H15.0313C15.2468 20.3125 15.4535 20.3981 15.6058 20.5505C15.7582 20.7028 15.8438 20.9095 15.8438 21.125ZM9.40983 14.7763C9.32301 14.7143 9.22481 14.67 9.12086 14.6459C9.01691 14.6219 8.90924 14.6185 8.80399 14.636C8.69874 14.6536 8.59797 14.6917 8.50745 14.7482C8.41692 14.8046 8.33841 14.8784 8.27639 14.9652L6.90631 16.8838L5.53624 14.9652C5.47643 14.8732 5.39859 14.7943 5.30743 14.7331C5.21627 14.672 5.11368 14.63 5.00583 14.6096C4.89799 14.5893 4.78713 14.5909 4.67996 14.6146C4.57278 14.6382 4.47151 14.6833 4.38224 14.7472C4.29298 14.811 4.21758 14.8923 4.16059 14.9861C4.10361 15.0799 4.06621 15.1843 4.05067 15.2929C4.03513 15.4016 4.04176 15.5123 4.07016 15.6183C4.09856 15.7243 4.14815 15.8234 4.21592 15.9098L5.90796 18.2812L4.21389 20.6527C4.09988 20.8282 4.05793 21.0408 4.09678 21.2464C4.13562 21.4519 4.25226 21.6346 4.42241 21.7563C4.59257 21.878 4.80311 21.9294 5.01021 21.8998C5.21732 21.8702 5.40501 21.7618 5.53421 21.5973L6.90631 19.6787L8.27639 21.5973C8.40559 21.7618 8.59328 21.8702 8.80038 21.8998C9.00748 21.9294 9.21803 21.878 9.38819 21.7563C9.55834 21.6346 9.67498 21.4519 9.71382 21.2464C9.75267 21.0408 9.71071 20.8282 9.59671 20.6527L7.90467 18.2812L9.59874 15.9098C9.66076 15.8229 9.70507 15.7247 9.72914 15.6208C9.75321 15.5168 9.75657 15.4092 9.73903 15.3039C9.72149 15.1987 9.68339 15.0979 9.62691 15.0074C9.57042 14.9169 9.49666 14.8383 9.40983 14.7763ZM19.4584 17.3987C19.0522 17.2809 18.6317 17.16 18.3971 17.0087C18.2701 16.9254 18.2722 16.9071 18.2833 16.8157C18.2849 16.7418 18.3041 16.6694 18.3395 16.6046C18.3748 16.5397 18.4252 16.4843 18.4865 16.443C18.9537 16.1261 20.0444 16.2683 20.4994 16.3861C20.7079 16.4409 20.9296 16.4107 21.1158 16.302C21.302 16.1933 21.4374 16.0152 21.4922 15.8067C21.547 15.5982 21.5168 15.3765 21.4081 15.1903C21.2995 15.0041 21.1213 14.8687 20.9128 14.8139C20.6985 14.758 18.78 14.2837 17.5785 15.0942C17.3252 15.2654 17.1124 15.4901 16.9554 15.7525C16.7983 16.0148 16.7007 16.3084 16.6695 16.6126C16.4664 18.2254 18.0558 18.6855 19.0055 18.9597C20.2303 19.3141 20.338 19.4594 20.3034 19.7305C20.2719 19.9753 20.1755 20.0688 20.0851 20.1297C19.6179 20.4405 18.5454 20.2871 18.1005 20.1652C17.8925 20.1075 17.6699 20.1347 17.482 20.241C17.3889 20.2936 17.3071 20.3641 17.2412 20.4483C17.1753 20.5325 17.1267 20.6289 17.0981 20.732C17.0695 20.835 17.0615 20.9426 17.0745 21.0488C17.0875 21.1549 17.1212 21.2575 17.1739 21.3505C17.2801 21.5385 17.4567 21.6766 17.6648 21.7344C18.1684 21.867 18.6868 21.9353 19.2076 21.9375C19.7987 21.9375 20.4568 21.8359 20.9839 21.4845C21.2439 21.3116 21.4624 21.0832 21.6236 20.8157C21.7848 20.5483 21.8848 20.2484 21.9162 19.9377C22.1407 18.1797 20.4629 17.6891 19.4584 17.3987ZM4.06256 11.375V4.0625C4.06256 3.63152 4.23377 3.2182 4.53852 2.91345C4.84326 2.60871 5.25659 2.4375 5.68756 2.4375H15.4376C15.5443 2.43742 15.65 2.45836 15.7486 2.49914C15.8473 2.53992 15.9369 2.59973 16.0124 2.67516L21.6999 8.36266C21.7753 8.43817 21.8351 8.5278 21.8759 8.62643C21.9167 8.72507 21.9376 8.83077 21.9376 8.9375V11.375C21.9376 11.5905 21.852 11.7972 21.6996 11.9495C21.5472 12.1019 21.3406 12.1875 21.1251 12.1875C20.9096 12.1875 20.7029 12.1019 20.5505 11.9495C20.3982 11.7972 20.3126 11.5905 20.3126 11.375V9.75H15.4376C15.2221 9.75 15.0154 9.6644 14.863 9.51202C14.7107 9.35965 14.6251 9.15299 14.6251 8.9375V4.0625H5.68756V11.375C5.68756 11.5905 5.60196 11.7972 5.44959 11.9495C5.29722 12.1019 5.09055 12.1875 4.87506 12.1875C4.65958 12.1875 4.45291 12.1019 4.30054 11.9495C4.14817 11.7972 4.06256 11.5905 4.06256 11.375ZM16.2501 8.125H19.1629L16.2501 5.21117V8.125Z" fill="#F6F6F6"/>
</svg>
